<svg width="465" height="56" viewBox="0 0 465 56" fill="none" xmlns="http://www.w3.org/2000/svg">
<path fill-rule="evenodd" clip-rule="evenodd" d="M0 54V2C0 0.895431 0.895429 0 2 0H55.5C56.6046 0 57.5 0.89543 57.5 2V8C57.5 9.10457 56.6046 10 55.5 10H14C12.8954 10 12 10.8954 12 12V22.5C12 23.6046 12.8954 24.5 14 24.5H52C53.1046 24.5 54 25.3954 54 26.5V31.5C54 32.6046 53.1046 33.5 52 33.5H14C12.8954 33.5 12 34.3954 12 35.5V54C12 55.1046 11.1046 56 10 56H2C0.895431 56 0 55.1046 0 54ZM63 54V2C63 0.895431 63.8954 0 65 0H73C74.1046 0 75 0.89543 75 2V44C75 45.1046 75.8954 46 77 46H116.5C117.605 46 118.5 46.8954 118.5 48V54C118.5 55.1046 117.605 56 116.5 56H65C63.8954 56 63 55.1046 63 54ZM124 2V54C124 55.1046 124.895 56 126 56H179.5C180.605 56 181.5 55.1046 181.5 54V48C181.5 46.8954 180.605 46 179.5 46H138C136.895 46 136 45.1046 136 44V33.5C136 32.3954 136.895 31.5 138 31.5H176.5C177.605 31.5 178.5 30.6046 178.5 29.5V24C178.5 22.8954 177.605 22 176.5 22H138C136.895 22 136 21.1046 136 20V12C136 10.8954 136.895 10 138 10H179.5C180.605 10 181.5 9.10457 181.5 8V2C181.5 0.89543 180.605 0 179.5 0H126C124.895 0 124 0.895431 124 2ZM216.357 26.5158L190.858 3.48421C189.499 2.25676 190.367 0 192.198 0H201.737C202.228 0 202.703 0.181089 203.069 0.508687L224.667 19.8091C225.426 20.4874 226.574 20.4874 227.333 19.8091L248.931 0.508688C249.297 0.18109 249.772 0 250.263 0H260.24C262.079 0 262.943 2.27303 261.568 3.49481L235.695 26.4934C234.795 27.2931 234.801 28.7006 235.707 29.4933L261.994 52.4948C263.384 53.7109 262.524 56 260.677 56H250.751C250.267 56 249.799 55.8242 249.434 55.5052L227.331 36.1646C226.571 35.4995 225.434 35.5055 224.681 36.1784L203.069 55.4913C202.703 55.8189 202.228 56 201.737 56H192.198C190.367 56 189.499 53.7432 190.858 52.5158L216.357 29.4842C217.236 28.6901 217.236 27.3099 216.357 26.5158ZM271 2V54C271 55.1046 271.895 56 273 56H281C282.105 56 283 55.1046 283 54V38C283 36.8954 283.895 36 285 36H321.5C328.68 36 334.5 30.1797 334.5 23V13C334.5 5.8203 328.68 0 321.5 0H273C271.895 0 271 0.895431 271 2ZM359.908 0.907921L326.015 52.9079C325.148 54.2383 326.103 56 327.691 56H336.423C337.095 56 337.723 55.6619 338.093 55.1003L363.799 16.0813C364.598 14.8698 366.38 14.8846 367.158 16.1092L391.911 55.0725C392.278 55.6501 392.915 56 393.599 56H402.781C404.375 56 405.329 54.2271 404.45 52.8975L370.093 0.897485C369.723 0.337117 369.096 0 368.424 0H361.584C360.908 0 360.277 0.341545 359.908 0.907921ZM389.533 0H399.217C399.72 0 400.205 0.189774 400.575 0.531456L425.129 23.2327C425.901 23.9463 427.094 23.9406 427.859 23.2198L451.922 0.544424C452.293 0.194745 452.784 0 453.294 0H462.967C464.776 0 465.655 2.21243 464.339 3.45459L433.127 32.908C432.727 33.2858 432.5 33.812 432.5 34.3626V54C432.5 55.1046 431.605 56 430.5 56H422C420.895 56 420 55.1046 420 54V34.3626C420 33.812 419.773 33.2858 419.373 32.908L388.161 3.45459C386.845 2.21242 387.724 0 389.533 0ZM283 10H314C317.866 10 321 13.134 321 17V18.5C321 22.366 317.866 25.5 314 25.5H283V10Z" fill="#D9D9D9"/>
</svg>
