<svg width="197" height="40" viewBox="0 0 197 40" fill="none" xmlns="http://www.w3.org/2000/svg">
<path d="M0.964844 0.5172L3.14296 5.86408L6.68444 1.30434L0.964844 0.5172ZM195.676 0.109037C186.869 6.34064 171.323 15.7489 153.338 23.6974C135.346 31.6487 114.958 38.1194 96.4541 38.5173L96.4756 39.5171C115.171 39.115 135.7 32.5857 153.742 24.612C171.79 16.6355 187.394 7.19376 196.254 0.925364L195.676 0.109037ZM96.4541 38.5173C79.1833 38.8887 60.8462 33.4177 44.5223 26.1206C28.2039 18.8259 13.9364 9.72405 4.81763 2.87658L4.21716 3.67623C13.3871 10.5621 27.7185 19.7043 44.1142 27.0335C60.5045 34.3603 78.9967 39.893 96.4756 39.5171L96.4541 38.5173Z" fill="black"/>
</svg>
