<svg width="196" height="40" viewBox="0 0 196 40" fill="none" xmlns="http://www.w3.org/2000/svg">
<path d="M195.965 39.518L193.787 34.1711L190.245 38.7308L195.965 39.518ZM1.25364 39.9261C10.061 33.6945 25.6071 24.2862 43.592 16.3378C61.5833 8.38649 81.9713 1.91578 100.476 1.51784L100.454 0.51807C81.7584 0.920129 61.2298 7.44942 43.1877 15.4231C25.1393 23.3997 9.53538 32.8414 0.676049 39.1098L1.25364 39.9261ZM100.476 1.51784C117.746 1.14642 136.084 6.61747 152.407 13.9146C168.726 21.2092 182.993 30.3111 192.112 37.1586L192.713 36.3589C183.543 29.473 169.211 20.3308 152.815 13.0016C136.425 5.67485 117.933 0.142181 100.454 0.51807L100.476 1.51784Z" fill="black"/>
</svg>
